<svg width="181" height="53" viewBox="0 0 181 53" fill="none" xmlns="http://www.w3.org/2000/svg">
<path d="M37.4727 46.8739L29.8109 43.043C27.6752 41.9862 25.1873 41.9862 23.0517 43.043L15.3678 46.8739C8.80679 50.1544 1.87148 43.087 5.3061 36.592L7.11149 33.2014C7.35367 32.7171 7.74998 32.3428 8.23435 32.1446L36.0857 19.617C37.2306 19.1106 38.5736 19.573 39.146 20.6738L47.5344 36.614C50.9691 43.087 44.0338 50.1544 37.4727 46.8739Z" fill="#7E22CE"/>
<path opacity="0.4" d="M34.3463 16.9308L16.1163 25.1431C14.0688 26.0678 11.9992 23.8661 13.056 21.8846L19.7491 9.18088C22.5893 3.78675 30.2952 3.78675 33.1354 9.18088L35.4912 13.6723C36.1076 14.8832 35.6013 16.3584 34.3463 16.9308Z" fill="#7E22CE"/>
<path d="M62.1253 39V10.8813H67.9755V33.9047H79.8646V39H62.1253ZM80.6903 39L90.2015 10.8813H97.9766L107.488 39H101.109L99.2222 33.263H88.9183L87.0311 39H80.6903ZM90.5412 28.1677H97.5992L93.2965 14.8821H94.8817L90.5412 28.1677ZM110.41 39V10.8813H116.072L126.602 24.8463H123.96L134.188 10.8813H139.85V39H134V17.3354L136.34 17.8638L125.507 31.8288H124.752L114.298 17.8638L116.26 17.3354V39H110.41ZM142.76 39L152.271 10.8813H160.046L169.558 39H163.179L161.292 33.263H150.988L149.101 39H142.76ZM152.611 28.1677H159.669L155.366 14.8821H156.952L152.611 28.1677ZM174.858 39V33.3385H180.519V39H174.858Z" fill="#7E22CE"/>
</svg>
