<svg width="39" height="39" viewBox="0 0 39 39" fill="none" xmlns="http://www.w3.org/2000/svg">
<rect x="1" y="1" width="37" height="37" rx="18.5" fill="#F3E8FF" stroke="#7E22CE" stroke-width="2"/>
<path d="M24.6631 22.6006H23.5769L23.1919 22.2293C24.5394 20.6618 25.3506 18.6268 25.3506 16.4131C25.3506 11.4768 21.3494 7.47559 16.4131 7.47559C11.4769 7.47559 7.47565 11.4768 7.47565 16.4131C7.47565 21.3493 11.4769 25.3506 16.4131 25.3506C18.6269 25.3506 20.6619 24.5393 22.2294 23.1918L22.6006 23.5768V24.6631L29.4756 31.5243L31.5244 29.4756L24.6631 22.6006ZM16.4131 22.6006C12.9894 22.6006 10.2256 19.8368 10.2256 16.4131C10.2256 12.9893 12.9894 10.2256 16.4131 10.2256C19.8369 10.2256 22.6006 12.9893 22.6006 16.4131C22.6006 19.8368 19.8369 22.6006 16.4131 22.6006Z" fill="#7E22CE"/>
</svg>
